<svg id="Group_23" data-name="Group 23" xmlns="http://www.w3.org/2000/svg" width="87.398" height="50.604" viewBox="0 0 87.398 50.604">
  <path id="Path_44" data-name="Path 44" d="M87.4,12.164V14.3a13.04,13.04,0,0,1-4.369,8.726A13.164,13.164,0,0,1,78.66,25.6c-.3.109-.609.2-.922.284.063.15.117.3.171.455A13.12,13.12,0,0,1,65.552,43.817H65.21a6.56,6.56,0,0,0-12.428,0H39.545a7.023,7.023,0,0,1,6.777-8.739H65.548a4.37,4.37,0,0,0,0-8.739H48.283A7.023,7.023,0,0,1,55.107,17.6H74.19a4.453,4.453,0,0,0,4.469-4.457,4.37,4.37,0,0,0-4.369-4.286H26.22L34.1,40.378a6.556,6.556,0,0,0-8.434,1.21L17.481,8.859H0A8.741,8.741,0,0,1,8.739.12H74.286a13.16,13.16,0,0,1,12.4,8.739,12.919,12.919,0,0,1,.705,3.3Z" transform="translate(0 -0.12)" fill="#482611"/>
  <path id="Path_45" data-name="Path 45" d="M134.647,107.955a4.807,4.807,0,1,1,4.807-4.807A4.814,4.814,0,0,1,134.647,107.955Z" transform="translate(-75.656 -57.351)" fill="#e8a328"/>
  <path id="Path_46" data-name="Path 46" d="M66.587,107.955a4.807,4.807,0,1,1,4.807-4.807A4.814,4.814,0,0,1,66.587,107.955Z" transform="translate(-35.998 -57.351)" fill="#e8a328"/>
</svg>
