<svg id="Group_496" data-name="Group 496" xmlns="http://www.w3.org/2000/svg" width="150" height="50" viewBox="0 0 93.909 19.995">
  <g id="Group_22" data-name="Group 22" transform="translate(38.46)">
    <path id="Path_27" data-name="Path 27" d="M237.152,6.324v6.8H235.21v-6.8h-1.72V5.4h5.429l-.094.924Z" transform="translate(-233.49 -4.509)" fill="#482611"/>
    <path id="Path_28" data-name="Path 28" d="M271.721,17.45v3.382h-1.79V14.864l1.463-.14.082,1.053a1.632,1.632,0,0,1,1.591-1.146,1.326,1.326,0,0,1,1.451,1.417,1.012,1.012,0,0,1-1.112,1.135,1.163,1.163,0,0,1-.562-.128,2.154,2.154,0,0,0,.082-.608c0-.433-.117-.855-.55-.855C271.732,15.59,271.721,16.714,271.721,17.45Z" transform="translate(-263.928 -12.219)" fill="#482611"/>
    <path id="Path_29" data-name="Path 29" d="M301.214,21.08a1.826,1.826,0,0,1-2.024-1.79c0-1.614,1.942-1.873,3.581-1.873V16.4c0-.644-.105-1.135-.749-1.135s-.889.516-.889,1.064a1.938,1.938,0,0,0,.071.527,1.246,1.246,0,0,1-.55.117c-.608,0-1.112-.28-1.112-.889,0-.947,1.229-1.463,2.515-1.463,1.392,0,2.5.573,2.5,2v3.031a1.229,1.229,0,0,0,.362,1.006,1.192,1.192,0,0,1-.889.339,1.062,1.062,0,0,1-1.1-.644,2.049,2.049,0,0,1-1.72.725Zm1.557-2.094V18c-.97,0-1.731.293-1.731,1.263,0,.562.282,1.006.842,1.006C302.537,20.273,302.771,19.629,302.771,18.987Z" transform="translate(-288.368 -12.21)" fill="#482611"/>
    <path id="Path_30" data-name="Path 30" d="M343.7,9.634a1.192,1.192,0,0,1-.889.339,1.06,1.06,0,0,1-1.123-.7,1.723,1.723,0,0,1-1.568.784c-1.72,0-2.281-1.534-2.281-3.265,0-1.965.924-3.194,2.9-3.194a3.141,3.141,0,0,1,.807.094V1.608l1.791-.188V8.628A1.267,1.267,0,0,0,343.7,9.634ZM340.718,4.3c-.936,0-1.006,1.357-1.006,2.433s.094,2.481.983,2.481c.644,0,.855-.656.855-1.286V4.578a1.442,1.442,0,0,0-.83-.28Z" transform="translate(-320.652 -1.184)" fill="#482611"/>
    <path id="Path_31" data-name="Path 31" d="M380.9.833c0,.562-.479.842-1.089.842S378.75,1.4,378.75.856s.491-.866,1.1-.866,1.053.3,1.053.842Zm.153,7.607a1.263,1.263,0,0,1-.912.339,1.1,1.1,0,0,1-1.24-1.229V2.637h1.79v4.8a1.267,1.267,0,0,0,.362,1.006Z" transform="translate(-354.823 0.01)" fill="#482611"/>
    <path id="Path_32" data-name="Path 32" d="M395.3,10.05a5.59,5.59,0,0,0,2.082-1.38h.516V9.887h1.064v.527h-1.077V14.58c0,.468.152.855.807.784a1.541,1.541,0,0,1-1.38.667,1.125,1.125,0,0,1-1.229-1.275v-4.34H395.3v-.362Z" transform="translate(-368.647 -7.24)" fill="#482611"/>
    <path id="Path_33" data-name="Path 33" d="M422.183.833c0,.562-.479.842-1.089.842S420.03,1.4,420.03.856s.491-.866,1.1-.866,1.053.3,1.053.842Zm.152,7.607a1.263,1.263,0,0,1-.913.339,1.1,1.1,0,0,1-1.24-1.229V2.637h1.791v4.8a1.267,1.267,0,0,0,.362,1.006Z" transform="translate(-389.304 0.01)" fill="#482611"/>
    <path id="Path_34" data-name="Path 34" d="M444.013,17.766c0,1.942-.936,3.322-2.866,3.322s-2.8-1.311-2.8-3.205.947-3.253,2.866-3.253S444.013,15.847,444.013,17.766Zm-1.871.058c0-1.053-.082-2.492-.959-2.492s-.959,1.451-.959,2.492.046,2.563.959,2.563S442.142,18.9,442.142,17.824Z" transform="translate(-404.606 -12.219)" fill="#482611"/>
    <path id="Path_35" data-name="Path 35" d="M480.233,14.724l.082,1.053a1.785,1.785,0,0,1,1.837-1.146c1.4,0,1.873.8,1.873,2.2V19.66a1.267,1.267,0,0,0,.362,1.006,1.264,1.264,0,0,1-.913.339,1.1,1.1,0,0,1-1.24-1.229V16.923c0-.7-.035-1.4-.738-1.4-.866,0-.936,1.053-.936,1.919v3.393h-1.79V14.864Z" transform="translate(-438.368 -12.219)" fill="#482611"/>
    <path id="Path_36" data-name="Path 36" d="M518.515,21.08a1.826,1.826,0,0,1-2.024-1.79c0-1.614,1.942-1.873,3.581-1.873V16.4c0-.644-.106-1.135-.75-1.135s-.889.516-.889,1.064a1.94,1.94,0,0,0,.071.527,1.246,1.246,0,0,1-.55.117c-.608,0-1.112-.28-1.112-.889,0-.947,1.229-1.463,2.515-1.463,1.392,0,2.5.573,2.5,2v3.031a1.229,1.229,0,0,0,.362,1.006,1.191,1.191,0,0,1-.889.339,1.06,1.06,0,0,1-1.1-.644,2.049,2.049,0,0,1-1.72.725Zm1.557-2.094V18c-.97,0-1.731.293-1.731,1.263,0,.562.28,1.006.842,1.006C519.837,20.273,520.071,19.629,520.071,18.987Z" transform="translate(-469.875 -12.21)" fill="#482611"/>
    <path id="Path_37" data-name="Path 37" d="M558.841,8.628a1.267,1.267,0,0,0,.362,1.006,1.263,1.263,0,0,1-.912.339,1.1,1.1,0,0,1-1.24-1.229V1.608l1.79-.188V8.628Z" transform="translate(-503.754 -1.184)" fill="#482611"/>
    <path id="Path_38" data-name="Path 38" d="M241.776,76.019a1.982,1.982,0,0,1,1.767,2.082c0,1.7-1.685,2.375-3.382,2.375a21.232,21.232,0,0,1-2.551-.163V72.709c.819-.071,1.779-.128,2.6-.128,1.486,0,2.738.339,2.738,1.837a1.759,1.759,0,0,1-1.17,1.6Zm-1.767-.163c.842,0,1.229-.479,1.229-1.323a.959.959,0,0,0-1.064-1.1,3.569,3.569,0,0,0-.619.059v2.329a3.04,3.04,0,0,0,.456.035Zm.176,3.779c.947,0,1.4-.55,1.4-1.5,0-1.089-.527-1.5-1.614-1.5-.117,0-.3.012-.422.023v2.9a2.955,2.955,0,0,0,.632.071Z" transform="translate(-236.931 -60.623)" fill="#482611"/>
    <path id="Path_39" data-name="Path 39" d="M278.914,88.62a1.826,1.826,0,0,1-2.024-1.79c0-1.614,1.942-1.873,3.581-1.873V83.939c0-.644-.105-1.135-.749-1.135s-.89.516-.89,1.064a1.937,1.937,0,0,0,.071.527,1.246,1.246,0,0,1-.55.117c-.608,0-1.112-.28-1.112-.889,0-.947,1.229-1.463,2.515-1.463,1.392,0,2.5.573,2.5,2v3.031a1.229,1.229,0,0,0,.362,1.006,1.192,1.192,0,0,1-.889.339,1.062,1.062,0,0,1-1.1-.644,2.049,2.049,0,0,1-1.72.725Zm1.557-2.1v-.983c-.97,0-1.731.293-1.731,1.263,0,.562.282,1.006.842,1.006.656,0,.889-.644.889-1.286Z" transform="translate(-269.741 -68.625)" fill="#482611"/>
    <path id="Path_40" data-name="Path 40" d="M315.761,88.677l2.551-.128-.105,1.018h-4.376l-.071-.7,2.481-4.363-2.316.152.105-1.053h4.154l.082.69-2.5,4.388Z" transform="translate(-300.538 -69.828)" fill="#482611"/>
    <path id="Path_41" data-name="Path 41" d="M346.114,88.62a1.826,1.826,0,0,1-2.024-1.79c0-1.614,1.942-1.873,3.581-1.873V83.939c0-.644-.105-1.135-.749-1.135s-.889.516-.889,1.064a1.942,1.942,0,0,0,.071.527,1.246,1.246,0,0,1-.55.117c-.608,0-1.112-.28-1.112-.889,0-.947,1.229-1.463,2.515-1.463,1.392,0,2.5.573,2.5,2v3.031a1.229,1.229,0,0,0,.362,1.006,1.192,1.192,0,0,1-.889.339,1.062,1.062,0,0,1-1.1-.644,2.049,2.049,0,0,1-1.72.725Zm1.557-2.1v-.983c-.97,0-1.731.293-1.731,1.263,0,.562.282,1.006.842,1.006C347.437,87.811,347.671,87.167,347.671,86.525Z" transform="translate(-325.872 -68.625)" fill="#482611"/>
    <path id="Path_42" data-name="Path 42" d="M384.474,88.62a1.826,1.826,0,0,1-2.024-1.79c0-1.614,1.942-1.873,3.581-1.873V83.939c0-.644-.105-1.135-.749-1.135s-.889.516-.889,1.064a1.939,1.939,0,0,0,.071.527,1.246,1.246,0,0,1-.55.117c-.608,0-1.112-.28-1.112-.889,0-.947,1.229-1.463,2.515-1.463,1.392,0,2.5.573,2.5,2v3.031a1.229,1.229,0,0,0,.362,1.006,1.192,1.192,0,0,1-.89.339,1.062,1.062,0,0,1-1.1-.644,2.049,2.049,0,0,1-1.72.725Zm1.555-2.1v-.983c-.97,0-1.731.293-1.731,1.263,0,.562.282,1.006.842,1.006C385.8,87.811,386.029,87.167,386.029,86.525Z" transform="translate(-357.914 -68.625)" fill="#482611"/>
    <path id="Path_43" data-name="Path 43" d="M424.731,84.99v3.382h-1.79V82.4l1.463-.14.082,1.053a1.632,1.632,0,0,1,1.591-1.146,1.326,1.326,0,0,1,1.451,1.417,1.012,1.012,0,0,1-1.112,1.135,1.163,1.163,0,0,1-.562-.128,2.153,2.153,0,0,0,.082-.608c0-.433-.117-.855-.55-.855C424.742,83.13,424.731,84.254,424.731,84.99Z" transform="translate(-391.734 -68.633)" fill="#482611"/>
  </g>
  <g id="Group_23" data-name="Group 23" transform="translate(0 0.021)">
    <path id="Path_44" data-name="Path 44" d="M34.5,4.874v.843a5.147,5.147,0,0,1-1.725,3.444,5.2,5.2,0,0,1-1.725,1.016c-.119.043-.24.079-.364.112.025.059.046.119.068.18a5.178,5.178,0,0,1-4.877,6.9h-.135a2.589,2.589,0,0,0-4.905,0H15.609a2.772,2.772,0,0,1,2.675-3.449h7.589a1.725,1.725,0,0,0,0-3.449H19.058A2.772,2.772,0,0,1,21.751,7.02h7.533a1.758,1.758,0,0,0,1.764-1.759,1.725,1.725,0,0,0-1.725-1.692H10.349l3.11,12.441a2.588,2.588,0,0,0-3.329.478L6.9,3.569H0A3.45,3.45,0,0,1,3.449.12H29.321a5.194,5.194,0,0,1,4.9,3.449,5.1,5.1,0,0,1,.278,1.3Z" transform="translate(0 -0.12)" fill="#482611"/>
    <path id="Path_45" data-name="Path 45" d="M131.738,102.135a1.9,1.9,0,1,1,1.9-1.9A1.9,1.9,0,0,1,131.738,102.135Z" transform="translate(-108.453 -82.161)" fill="#482611"/>
    <path id="Path_46" data-name="Path 46" d="M63.678,102.135a1.9,1.9,0,1,1,1.9-1.9A1.9,1.9,0,0,1,63.678,102.135Z" transform="translate(-51.604 -82.161)" fill="#482611"/>
  </g>
</svg>
