<svg id="Group_24" data-name="Group 24" xmlns="http://www.w3.org/2000/svg" width="237.92" height="50.658" viewBox="0 0 237.92 50.658">
  <g id="Group_22" data-name="Group 22" transform="translate(97.439)">
    <path id="Path_27" data-name="Path 27" d="M242.767,7.741V24.964h-4.92V7.741H233.49V5.4h13.755l-.238,2.341Z" transform="translate(-233.49 -3.142)" fill="#482611"/>
    <path id="Path_28" data-name="Path 28" d="M274.466,21.774v8.567H269.93V15.223l3.706-.355.209,2.667a4.134,4.134,0,0,1,4.031-2.9,3.359,3.359,0,0,1,3.677,3.589,2.565,2.565,0,0,1-2.817,2.875,2.946,2.946,0,0,1-1.423-.326,5.455,5.455,0,0,0,.209-1.54c0-1.1-.3-2.166-1.394-2.166C274.5,17.063,274.466,19.909,274.466,21.774Z" transform="translate(-254.723 -8.52)" fill="#482611"/>
    <path id="Path_29" data-name="Path 29" d="M304.319,30.987c-2.875,0-5.129-1.69-5.129-4.536,0-4.09,4.92-4.745,9.072-4.745V19.127s-.267-2.875-1.9-2.875-2.253,1.306-2.253,2.7a4.911,4.911,0,0,0,.179,1.335,3.158,3.158,0,0,1-1.394.3c-1.54,0-2.817-.709-2.817-2.254,0-2.4,3.113-3.706,6.372-3.706,3.526,0,6.343,1.452,6.343,5.07v7.679a3.115,3.115,0,0,0,.918,2.55,3.019,3.019,0,0,1-2.253.86,2.69,2.69,0,0,1-2.788-1.632,5.19,5.19,0,0,1-4.357,1.836Zm3.944-5.3V23.192c-2.458,0-4.386.743-4.386,3.2,0,1.423.714,2.55,2.133,2.55C307.67,28.942,308.262,27.311,308.262,25.683Z" transform="translate(-271.772 -8.515)" fill="#482611"/>
    <path id="Path_30" data-name="Path 30" d="M352.692,22.232a3.019,3.019,0,0,1-2.254.86,2.687,2.687,0,0,1-2.846-1.778A4.366,4.366,0,0,1,343.62,23.3c-4.357,0-5.78-3.885-5.78-8.271,0-4.979,2.341-8.092,7.353-8.092a7.959,7.959,0,0,1,2.045.238V1.9l4.536-.476V19.682A3.211,3.211,0,0,0,352.692,22.232ZM345.131,8.711c-2.37,0-2.55,3.439-2.55,6.164s.238,6.285,2.491,6.285c1.632,0,2.166-1.661,2.166-3.259V9.42a3.653,3.653,0,0,0-2.1-.709Z" transform="translate(-294.293 -0.823)" fill="#482611"/>
    <path id="Path_31" data-name="Path 31" d="M382.763,2.127a1.935,1.935,0,0,1-2.03,2.132,1.884,1.884,0,0,1-1.983-2.074A2.034,2.034,0,0,1,380.8-.01a1.919,1.919,0,0,1,1.962,2.132Zm.286,19.272a2.047,2.047,0,0,1-1.7.86c-1.5,0-2.312-1.068-2.312-3.113V6.7h3.337V18.849a3.936,3.936,0,0,0,.675,2.55Z" transform="translate(-316.587 0.01)" fill="#482611"/>
    <path id="Path_32" data-name="Path 32" d="M395.3,12.167a14.163,14.163,0,0,0,5.275-3.5h1.306v3.084h2.7v1.335h-2.729V23.643c0,1.185.384,2.166,2.045,1.986a3.9,3.9,0,0,1-3.5,1.69c-2.045,0-3.113-1.156-3.113-3.23v-11H395.3v-.918Z" transform="translate(-327.774 -5.048)" fill="#482611"/>
    <path id="Path_33" data-name="Path 33" d="M425.484,2.127c0,1.423-1.214,2.132-2.758,2.132s-2.7-.709-2.7-2.074,1.244-2.2,2.788-2.2,2.667.772,2.667,2.132Zm.384,19.272a3.2,3.2,0,0,1-2.312.86,2.8,2.8,0,0,1-3.142-3.113V6.7h4.536V18.849a3.21,3.21,0,0,0,.918,2.55Z" transform="translate(-342.184 0.01)" fill="#482611"/>
    <path id="Path_34" data-name="Path 34" d="M452.7,22.576c0,4.92-2.37,8.417-7.261,8.417s-7.086-3.322-7.086-8.121,2.4-8.242,7.261-8.242S452.7,17.714,452.7,22.576Zm-4.741.146c0-2.667-.209-6.314-2.429-6.314s-2.429,3.677-2.429,6.314.117,6.493,2.429,6.493S447.957,25.451,447.957,22.722Z" transform="translate(-352.859 -8.52)" fill="#482611"/>
    <path id="Path_35" data-name="Path 35" d="M482.476,14.868l.209,2.667a4.522,4.522,0,0,1,4.653-2.9c3.556,0,4.745,2.016,4.745,5.571v7.174a3.211,3.211,0,0,0,.918,2.55,3.2,3.2,0,0,1-2.312.86,2.8,2.8,0,0,1-3.142-3.113V20.439c0-1.778-.088-3.556-1.87-3.556-2.2,0-2.37,2.667-2.37,4.862v8.6H478.77V15.223Z" transform="translate(-376.411 -8.52)" fill="#482611"/>
    <path id="Path_36" data-name="Path 36" d="M521.619,30.987c-2.875,0-5.129-1.69-5.129-4.536,0-4.09,4.92-4.745,9.072-4.745V19.127c0-1.632-.267-2.875-1.9-2.875s-2.254,1.306-2.254,2.7a4.91,4.91,0,0,0,.179,1.335,3.158,3.158,0,0,1-1.394.3c-1.54,0-2.817-.709-2.817-2.254,0-2.4,3.113-3.706,6.372-3.706,3.526,0,6.343,1.452,6.343,5.07v7.679a3.114,3.114,0,0,0,.918,2.55,3.019,3.019,0,0,1-2.253.86,2.686,2.686,0,0,1-2.788-1.632,5.19,5.19,0,0,1-4.357,1.836Zm3.944-5.3V23.192c-2.458,0-4.386.743-4.386,3.2,0,1.423.709,2.55,2.132,2.55C524.97,28.942,525.563,27.311,525.563,25.683Z" transform="translate(-398.39 -8.515)" fill="#482611"/>
    <path id="Path_37" data-name="Path 37" d="M561.586,19.682a3.211,3.211,0,0,0,.918,2.55,3.2,3.2,0,0,1-2.312.86,2.8,2.8,0,0,1-3.142-3.113V1.9l4.536-.476V19.682Z" transform="translate(-422.023 -0.823)" fill="#482611"/>
    <path id="Path_38" data-name="Path 38" d="M248.164,81.294a5.022,5.022,0,0,1,4.478,5.275c0,4.3-4.269,6.018-8.568,6.018a53.787,53.787,0,0,1-6.464-.413V72.906c2.074-.179,4.507-.326,6.581-.326,3.764,0,6.936.86,6.936,4.653a4.456,4.456,0,0,1-2.963,4.061Zm-4.478-.413c2.133,0,3.113-1.214,3.113-3.351,0-1.836-.889-2.788-2.7-2.788a9.041,9.041,0,0,0-1.569.15v5.9a7.7,7.7,0,0,0,1.156.088Zm.447,9.573c2.4,0,3.556-1.394,3.556-3.793,0-2.758-1.335-3.793-4.09-3.793-.3,0-.772.029-1.068.058v7.353a7.485,7.485,0,0,0,1.6.179Z" transform="translate(-235.891 -42.287)" fill="#e8a328"/>
    <path id="Path_39" data-name="Path 39" d="M282.019,98.527c-2.875,0-5.129-1.69-5.129-4.536,0-4.09,4.92-4.745,9.072-4.745V86.667c0-1.632-.267-2.875-1.9-2.875s-2.254,1.306-2.254,2.7a4.911,4.911,0,0,0,.179,1.335,3.158,3.158,0,0,1-1.394.3c-1.54,0-2.817-.709-2.817-2.254,0-2.4,3.113-3.706,6.372-3.706,3.526,0,6.343,1.452,6.343,5.07v7.679a3.114,3.114,0,0,0,.918,2.55,3.019,3.019,0,0,1-2.253.86,2.69,2.69,0,0,1-2.788-1.632,5.19,5.19,0,0,1-4.357,1.836Zm3.944-5.308V90.727c-2.458,0-4.386.743-4.386,3.2,0,1.423.714,2.55,2.132,2.55,1.661,0,2.254-1.632,2.254-3.259Z" transform="translate(-258.779 -47.869)" fill="#e8a328"/>
    <path id="Path_40" data-name="Path 40" d="M318.83,96.462l6.464-.326-.267,2.579H313.94l-.179-1.778,6.285-11.055-5.867.384.267-2.667h10.525l.209,1.749-6.343,11.117Z" transform="translate(-280.262 -48.708)" fill="#e8a328"/>
    <path id="Path_41" data-name="Path 41" d="M349.219,98.527c-2.875,0-5.129-1.69-5.129-4.536,0-4.09,4.92-4.745,9.072-4.745V86.667c0-1.632-.267-2.875-1.9-2.875s-2.254,1.306-2.254,2.7a4.912,4.912,0,0,0,.179,1.335,3.158,3.158,0,0,1-1.394.3c-1.54,0-2.817-.709-2.817-2.254,0-2.4,3.113-3.706,6.372-3.706,3.526,0,6.343,1.452,6.343,5.07v7.679a3.114,3.114,0,0,0,.918,2.55,3.019,3.019,0,0,1-2.253.86,2.69,2.69,0,0,1-2.788-1.632,5.19,5.19,0,0,1-4.357,1.836Zm3.944-5.308V90.727c-2.458,0-4.386.743-4.386,3.2,0,1.423.714,2.55,2.132,2.55,1.661,0,2.254-1.632,2.254-3.259Z" transform="translate(-297.935 -47.869)" fill="#e8a328"/>
    <path id="Path_42" data-name="Path 42" d="M387.579,98.527c-2.875,0-5.129-1.69-5.129-4.536,0-4.09,4.92-4.745,9.072-4.745V86.667c0-1.632-.267-2.875-1.9-2.875s-2.253,1.306-2.253,2.7a4.911,4.911,0,0,0,.179,1.335,3.158,3.158,0,0,1-1.394.3c-1.54,0-2.817-.709-2.817-2.254,0-2.4,3.113-3.706,6.372-3.706,3.526,0,6.343,1.452,6.343,5.07v7.679a3.115,3.115,0,0,0,.918,2.55,3.019,3.019,0,0,1-2.253.86,2.69,2.69,0,0,1-2.788-1.632,5.19,5.19,0,0,1-4.357,1.836Zm3.939-5.308V90.727c-2.458,0-4.386.743-4.386,3.2,0,1.423.714,2.55,2.133,2.55,1.661,0,2.253-1.632,2.253-3.259Z" transform="translate(-320.287 -47.869)" fill="#e8a328"/>
    <path id="Path_43" data-name="Path 43" d="M427.476,89.314v8.568H422.94V82.763l3.706-.355.209,2.667a4.134,4.134,0,0,1,4.031-2.9,3.359,3.359,0,0,1,3.676,3.589,2.565,2.565,0,0,1-2.817,2.875,2.946,2.946,0,0,1-1.423-.325,5.454,5.454,0,0,0,.209-1.54c0-1.1-.3-2.166-1.394-2.166C427.505,84.6,427.476,87.449,427.476,89.314Z" transform="translate(-343.88 -47.875)" fill="#e8a328"/>
  </g>
  <g id="Group_23" data-name="Group 23" transform="translate(0 0.054)">
    <path id="Path_44" data-name="Path 44" d="M87.4,12.164V14.3a13.04,13.04,0,0,1-4.369,8.726A13.164,13.164,0,0,1,78.66,25.6c-.3.109-.609.2-.922.284.063.15.117.3.171.455A13.12,13.12,0,0,1,65.552,43.817H65.21a6.56,6.56,0,0,0-12.428,0H39.545a7.023,7.023,0,0,1,6.777-8.739H65.548a4.37,4.37,0,0,0,0-8.739H48.283A7.023,7.023,0,0,1,55.107,17.6H74.19a4.453,4.453,0,0,0,4.469-4.457,4.37,4.37,0,0,0-4.369-4.286H26.22L34.1,40.378a6.556,6.556,0,0,0-8.434,1.21L17.481,8.859H0A8.741,8.741,0,0,1,8.739.12H74.286a13.16,13.16,0,0,1,12.4,8.739,12.919,12.919,0,0,1,.705,3.3Z" transform="translate(0 -0.12)" fill="#482611"/>
    <path id="Path_45" data-name="Path 45" d="M134.647,107.955a4.807,4.807,0,1,1,4.807-4.807A4.814,4.814,0,0,1,134.647,107.955Z" transform="translate(-75.656 -57.351)" fill="#e8a328"/>
    <path id="Path_46" data-name="Path 46" d="M66.587,107.955a4.807,4.807,0,1,1,4.807-4.807A4.814,4.814,0,0,1,66.587,107.955Z" transform="translate(-35.998 -57.351)" fill="#e8a328"/>
  </g>
</svg>
