<svg xmlns="http://www.w3.org/2000/svg" width="19.773" height="13.499" viewBox="0 0 19.773 13.499">
  <g id="Group_29" data-name="Group 29" transform="translate(-420 -212)">
    <path id="Rounded_Rectangle_6" data-name="Rounded Rectangle 6" d="M347.412,213h16.949a1.352,1.352,0,1,1,0,2.7H347.412a1.352,1.352,0,1,1,0-2.7Z" transform="translate(74 -0.997)" fill="#482611"/>
    <path id="Rounded_Rectangle_6_copy_2" data-name="Rounded Rectangle 6 copy 2" d="M347.412,223.8h16.949a1.352,1.352,0,1,1,0,2.7H347.412a1.352,1.352,0,1,1,0-2.7Z" transform="translate(74 -0.997)" fill="#482611"/>
    <path id="Rounded_Rectangle_6_copy" data-name="Rounded Rectangle 6 copy" d="M347.412,218.4h16.949a1.351,1.351,0,1,1,0,2.7H347.412a1.351,1.351,0,1,1,0-2.7Z" transform="translate(74 -0.997)" fill="#482611"/>
  </g>
</svg>
