<svg xmlns="http://www.w3.org/2000/svg" width="20" height="19.991" viewBox="0 0 20 19.991">
  <path id="envelope-open" d="M18.716,6.752l-5.77-5.53a4.188,4.188,0,0,0-5.879-.013L1.283,6.752A4.19,4.19,0,0,0,0,9.758v6.077A4.172,4.172,0,0,0,4.167,20H15.833A4.172,4.172,0,0,0,20,15.835V9.758A4.188,4.188,0,0,0,18.716,6.752ZM8.232,2.4a2.511,2.511,0,0,1,3.548.013L17.4,7.8l-5.636,5.637a2.562,2.562,0,0,1-3.535,0L2.6,7.8Zm10.1,13.435a2.5,2.5,0,0,1-2.5,2.5H4.167a2.5,2.5,0,0,1-2.5-2.5V9.758a2.512,2.512,0,0,1,.049-.482l5.338,5.338a4.187,4.187,0,0,0,5.892,0l5.338-5.338a2.512,2.512,0,0,1,.049.482Z" transform="translate(0 -0.011)" fill="#7f7f7f"/>
</svg>
