<svg xmlns="http://www.w3.org/2000/svg" width="14.818" height="14.818" viewBox="0 0 14.818 14.818">
  <path id="search" d="M13.5,14.818h0L9.66,11.147a5.582,5.582,0,0,1-1.617.905,5.669,5.669,0,0,1-1.947.334,5.86,5.86,0,0,1-4.325-1.8A6.054,6.054,0,0,1,0,6.193,6.054,6.054,0,0,1,1.77,1.8,5.862,5.862,0,0,1,6.1,0a5.866,5.866,0,0,1,4.326,1.8,6.054,6.054,0,0,1,1.77,4.395,5.921,5.921,0,0,1-.329,1.977,5.72,5.72,0,0,1-.891,1.643l3.845,3.67-1.312,1.333ZM6.1,1.905A4.087,4.087,0,0,0,3.107,3.137a4.088,4.088,0,0,0-1.231,2.99A4.087,4.087,0,0,0,3.107,9.115,4.087,4.087,0,0,0,6.1,10.346a4.088,4.088,0,0,0,2.99-1.231,4.087,4.087,0,0,0,1.231-2.989,4.088,4.088,0,0,0-1.231-2.99A4.088,4.088,0,0,0,6.1,1.905Z" fill="#482611"/>
</svg>
