<svg id="Brown_BAR-02" data-name="Brown BAR-02" xmlns="http://www.w3.org/2000/svg" xmlns:xlink="http://www.w3.org/1999/xlink" width="100%" height="100%" viewBox="0 0 1920 89">
  <defs>
    <radialGradient id="radial-gradient" cx="0.499" cy="0.5" r="0.501" gradientTransform="matrix(1, 0, 0, 22.027, 0, -10.511)" gradientUnits="objectBoundingBox">
      <stop offset="0" stop-color="#482611" stop-opacity="0.839"/>
      <stop offset="0.783" stop-color="#482611" stop-opacity="0.941"/>
      <stop offset="1" stop-color="#482611" stop-opacity="0.502"/>
    </radialGradient>
    <radialGradient id="radial-gradient-2" cx="0.499" cy="0.5" r="11.166" gradientTransform="translate(0.477 0.001) scale(0.046 1.021)" gradientUnits="objectBoundingBox">
      <stop offset="0" stop-color="#482611"/>
      <stop offset="0.76" stop-color="#482611" stop-opacity="0.941"/>
      <stop offset="1" stop-color="#482611" stop-opacity="0.902"/>
    </radialGradient>
    <clipPath id="clip-path">
      <rect id="Rectangle_12" data-name="Rectangle 12" width="1920" height="89" fill="url(#radial-gradient)"/>
    </clipPath>
    <linearGradient id="linear-gradient" x1="-0.025" y1="-0.06" x2="1.025" y2="-0.06" gradientUnits="objectBoundingBox">
      <stop offset="0" stop-color="#482611" stop-opacity="0.902"/>
      <stop offset="0.01" stop-color="#482611" stop-opacity="0.8"/>
      <stop offset="0.209" stop-color="#482611"/>
      <stop offset="0.5" stop-color="#482611"/>
      <stop offset="0.789" stop-color="#482611"/>
      <stop offset="1" stop-color="#482611" stop-opacity="0.8"/>
      <stop offset="1" stop-color="#482611" stop-opacity="0.902"/>
    </linearGradient>
  </defs>
  <rect id="Rectangle_10" data-name="Rectangle 10" width="1920" height="89" fill="url(#radial-gradient-2)"/>
  <g id="Group_47" data-name="Group 47" clip-path="url(#clip-path)">
    <g id="Group_45" data-name="Group 45">
      <path id="Path_86" data-name="Path 86" d="M1011.79-47.92c-.49,28.86-10.75,54.05-32.23,72.36A142.1,142.1,0,0,0,970.9,9.6c16.49-15.16,23.67-34.79,24.03-57.41a126.363,126.363,0,0,1,53.97-101.63,143.9,143.9,0,0,0,5,17.26,109.288,109.288,0,0,0-42.11,84.26h0ZM919.07,89h8.43a75.418,75.418,0,0,0-8.43-34.77V89Zm25.29,0a92.385,92.385,0,0,0-25.28-63.62V2.65A109.357,109.357,0,0,1,961.22,89H944.37Zm33.7,0h16.85q0-6.48-.58-12.93a144.009,144.009,0,0,0,46.28-46.06h13.28a59.019,59.019,0,0,1,16.86,2.44A75.8,75.8,0,0,0,1045.46,89h16.85a58.9,58.9,0,0,1,25.28-48.41,58.97,58.97,0,0,1,12.64,11.92A42.1,42.1,0,0,0,1079.16,89h16.85a25.269,25.269,0,0,1,12.65-21.9,58.9,58.9,0,0,1,4.21,21.9h8.43V54.23a75.842,75.842,0,0,0-67.42-41.07h-4.28a143.472,143.472,0,0,0,6.35-16.83,92.382,92.382,0,0,1,65.34,29.06V2.65A109.02,109.02,0,0,0,1060-20.38a144.468,144.468,0,0,0,2.02-16.75,125.405,125.405,0,0,1,59.26,19.2V-37.42a142.571,142.571,0,0,0-58.42-16.55,58.5,58.5,0,0,1,16.85-33.71,144.122,144.122,0,0,0,41.57,33.46V-73.71a126.314,126.314,0,0,1-58.99-106.94h-16.85q0,6.48.58,12.93a144.138,144.138,0,0,0-46.29,46.06H986.45a59.019,59.019,0,0,1-16.86-2.44,75.8,75.8,0,0,0,25.29-56.55H978.03a58.9,58.9,0,0,1-25.28,48.41,58.967,58.967,0,0,1-12.64-11.92,42.1,42.1,0,0,0,21.07-36.49H944.33a25.27,25.27,0,0,1-12.65,21.9,58.9,58.9,0,0,1-4.21-21.9h-8.43v34.77a75.842,75.842,0,0,0,67.42,41.07h4.28a143.461,143.461,0,0,0-6.35,16.83,92.382,92.382,0,0,1-65.34-29.06V-94.3a109.02,109.02,0,0,0,61.29,23.03,144.481,144.481,0,0,0-2.02,16.75,125.4,125.4,0,0,1-59.26-19.2v19.49a142.462,142.462,0,0,0,58.43,16.55,58.761,58.761,0,0,1-16.86,33.7,143.954,143.954,0,0,0-41.57-33.45v19.49A126.314,126.314,0,0,1,978.05,89h0Zm33.71,0c0-1.41-.02-2.83-.06-4.24a159.834,159.834,0,0,0,19.13-15.97A92.646,92.646,0,0,0,1028.62,89Zm49.07-205.08a92.613,92.613,0,0,0-32.19,68.14c-1.19,36.24-14.69,67.17-42.15,88.48a142.594,142.594,0,0,1,5,17.26c35.69-24.68,52.66-62.04,54.01-105.74a75.712,75.712,0,0,1,24.01-53.29,142.346,142.346,0,0,1-8.67-14.85h0Zm-51.29-44.38a92.579,92.579,0,0,0,2.22-20.21h16.85c0,1.41.02,2.83.06,4.24a159.84,159.84,0,0,0-19.13,15.97h0Zm111.77-20.21v34.77a75.573,75.573,0,0,1-8.43-34.77Zm-25.28,0a92.385,92.385,0,0,0,25.28,63.62v22.74a109.357,109.357,0,0,1-42.14-86.35h16.85Z" fill="#e8a328" fill-rule="evenodd"/>
      <path id="Path_87" data-name="Path 87" d="M1214.04-47.92c-.49,28.86-10.75,54.05-32.23,72.36a142.076,142.076,0,0,0-8.66-14.84c16.49-15.16,23.67-34.79,24.03-57.41a126.363,126.363,0,0,1,53.97-101.63,143.9,143.9,0,0,0,5,17.26,109.288,109.288,0,0,0-42.11,84.26h0ZM1121.32,89h8.43a75.418,75.418,0,0,0-8.43-34.77V89Zm25.29,0a92.385,92.385,0,0,0-25.28-63.62V2.65A109.357,109.357,0,0,1,1163.47,89h-16.85Zm33.7,0h16.85q0-6.48-.58-12.93a144.009,144.009,0,0,0,46.28-46.06h13.28A59.019,59.019,0,0,1,1273,32.45,75.8,75.8,0,0,0,1247.71,89h16.85a58.9,58.9,0,0,1,25.28-48.41,58.97,58.97,0,0,1,12.64,11.92A42.1,42.1,0,0,0,1281.41,89h16.85a25.269,25.269,0,0,1,12.65-21.9,58.9,58.9,0,0,1,4.21,21.9h8.43V54.23a75.842,75.842,0,0,0-67.42-41.07h-4.28a143.472,143.472,0,0,0,6.35-16.83,92.382,92.382,0,0,1,65.34,29.06V2.65a109.02,109.02,0,0,0-61.29-23.03,144.468,144.468,0,0,0,2.02-16.75,125.405,125.405,0,0,1,59.26,19.2V-37.42a142.571,142.571,0,0,0-58.42-16.55,58.5,58.5,0,0,1,16.85-33.71,144.122,144.122,0,0,0,41.57,33.46V-73.71a126.314,126.314,0,0,1-58.99-106.94h-16.85q0,6.48.58,12.93a144.139,144.139,0,0,0-46.29,46.06H1188.7a59.019,59.019,0,0,1-16.86-2.44,75.8,75.8,0,0,0,25.29-56.55h-16.85A58.9,58.9,0,0,1,1155-132.24a58.97,58.97,0,0,1-12.64-11.92,42.1,42.1,0,0,0,21.07-36.49h-16.85a25.269,25.269,0,0,1-12.65,21.9,58.9,58.9,0,0,1-4.21-21.9h-8.43v34.77a75.842,75.842,0,0,0,67.42,41.07h4.28a143.472,143.472,0,0,0-6.35,16.83,92.382,92.382,0,0,1-65.34-29.06V-94.3a109.02,109.02,0,0,0,61.29,23.03,144.468,144.468,0,0,0-2.02,16.75,125.405,125.405,0,0,1-59.26-19.2v19.49a142.462,142.462,0,0,0,58.43,16.55,58.76,58.76,0,0,1-16.86,33.7,143.955,143.955,0,0,0-41.57-33.45v19.49A126.314,126.314,0,0,1,1180.3,89h0Zm33.71,0c0-1.41-.02-2.83-.06-4.24a159.839,159.839,0,0,0,19.13-15.97A92.646,92.646,0,0,0,1230.87,89Zm49.07-205.08a92.613,92.613,0,0,0-32.19,68.14c-1.19,36.24-14.69,67.17-42.15,88.48a142.6,142.6,0,0,1,5,17.26c35.69-24.68,52.66-62.04,54.01-105.74a75.712,75.712,0,0,1,24.01-53.29,142.346,142.346,0,0,1-8.67-14.85h0Zm-51.29-44.38a92.579,92.579,0,0,0,2.22-20.21h16.85c0,1.41.02,2.83.06,4.24a159.84,159.84,0,0,0-19.13,15.97Zm111.77-20.21v34.77a75.573,75.573,0,0,1-8.43-34.77Zm-25.28,0a92.385,92.385,0,0,0,25.28,63.62v22.74a109.357,109.357,0,0,1-42.14-86.35h16.85Z" fill="#e8a328" fill-rule="evenodd"/>
      <path id="Path_88" data-name="Path 88" d="M1416.29-47.92c-.49,28.86-10.75,54.05-32.23,72.36A142.076,142.076,0,0,0,1375.4,9.6c16.49-15.16,23.67-34.79,24.03-57.41a126.414,126.414,0,0,1,39.71-90.03v-22.05a143.99,143.99,0,0,0-34.87,38.22h-13.28a59.019,59.019,0,0,1-16.86-2.44,75.8,75.8,0,0,0,25.29-56.55h-16.85a58.9,58.9,0,0,1-25.28,48.41,58.97,58.97,0,0,1-12.64-11.92,42.1,42.1,0,0,0,21.07-36.49h-16.85a25.269,25.269,0,0,1-12.65,21.9,58.9,58.9,0,0,1-4.21-21.9h-8.43v34.77A75.842,75.842,0,0,0,1391-104.82h4.28a143.472,143.472,0,0,0-6.35,16.83,92.382,92.382,0,0,1-65.34-29.06v22.74a109.02,109.02,0,0,0,61.29,23.03,144.468,144.468,0,0,0-2.02,16.75,125.405,125.405,0,0,1-59.26-19.2v19.49a142.462,142.462,0,0,0,58.43,16.55,58.76,58.76,0,0,1-16.86,33.7,143.955,143.955,0,0,0-41.57-33.45v19.49a126.314,126.314,0,0,1,58.99,106.94h16.85q0-6.48-.58-12.93a143.968,143.968,0,0,0,40.31-37.25V4.91a119.71,119.71,0,0,1-43.14,52.89,142.082,142.082,0,0,0-5-17.26c27.46-21.3,40.96-52.23,42.15-88.48a94.135,94.135,0,0,1,6-30.73v-34.19a109.322,109.322,0,0,0-22.85,64.94h0ZM1323.57,89V54.23A75.573,75.573,0,0,1,1332,89Zm25.29,0a92.385,92.385,0,0,0-25.28-63.62V2.65A109.357,109.357,0,0,1,1365.72,89h-16.85Zm67.41,0c0-1.41-.02-2.83-.06-4.24a159.839,159.839,0,0,0,19.13-15.97A92.646,92.646,0,0,0,1433.12,89Zm-2.22-249.46a92.579,92.579,0,0,0,2.22-20.21h16.85c0,1.41.02,2.83.06,4.24A159.84,159.84,0,0,0,1414.05-160.46Z" fill="#e8a328" fill-rule="evenodd"/>
      <path id="Path_89" data-name="Path 89" d="M809.54-47.92c-.49,28.86-10.75,54.05-32.23,72.36A142.1,142.1,0,0,0,768.65,9.6c16.49-15.16,23.67-34.79,24.03-57.41a126.363,126.363,0,0,1,53.97-101.63,143.891,143.891,0,0,0,5,17.26,109.288,109.288,0,0,0-42.11,84.26h0ZM716.82,89h8.43a75.418,75.418,0,0,0-8.43-34.77V89Zm25.29,0a92.385,92.385,0,0,0-25.28-63.62V2.65A109.357,109.357,0,0,1,758.97,89H742.12Zm33.7,0h16.85q0-6.48-.58-12.93a144.009,144.009,0,0,0,46.28-46.06h13.28a59.019,59.019,0,0,1,16.86,2.44A75.8,75.8,0,0,0,843.21,89h16.85a58.9,58.9,0,0,1,25.28-48.41,58.967,58.967,0,0,1,12.64,11.92A42.1,42.1,0,0,0,876.91,89h16.85a25.27,25.27,0,0,1,12.65-21.9A58.9,58.9,0,0,1,910.62,89h8.43V54.23a75.842,75.842,0,0,0-67.42-41.07h-4.28A143.461,143.461,0,0,0,853.7-3.67a92.382,92.382,0,0,1,65.34,29.06V2.65a109.02,109.02,0,0,0-61.29-23.03,144.481,144.481,0,0,0,2.02-16.75,125.4,125.4,0,0,1,59.26,19.2V-37.42a142.572,142.572,0,0,0-58.42-16.55,58.5,58.5,0,0,1,16.85-33.71,144.121,144.121,0,0,0,41.57,33.46V-73.71a126.314,126.314,0,0,1-58.99-106.94H843.19q0,6.48.58,12.93a144.138,144.138,0,0,0-46.29,46.06H784.2a59.019,59.019,0,0,1-16.86-2.44,75.8,75.8,0,0,0,25.29-56.55H775.78a58.9,58.9,0,0,1-25.28,48.41,58.967,58.967,0,0,1-12.64-11.92,42.1,42.1,0,0,0,21.07-36.49H742.08a25.27,25.27,0,0,1-12.65,21.9,58.9,58.9,0,0,1-4.21-21.9h-8.43v34.77a75.842,75.842,0,0,0,67.42,41.07h4.28a143.461,143.461,0,0,0-6.35,16.83,92.382,92.382,0,0,1-65.34-29.06V-94.3a109.02,109.02,0,0,0,61.29,23.03,144.481,144.481,0,0,0-2.02,16.75,125.4,125.4,0,0,1-59.26-19.2v19.49a142.462,142.462,0,0,0,58.43,16.55,58.761,58.761,0,0,1-16.86,33.7,143.954,143.954,0,0,0-41.57-33.45v19.49A126.314,126.314,0,0,1,775.8,89h0Zm33.71,0c0-1.41-.02-2.83-.06-4.24a159.839,159.839,0,0,0,19.13-15.97A92.646,92.646,0,0,0,826.37,89H809.52Zm49.07-205.08A92.613,92.613,0,0,0,826.4-47.94c-1.19,36.24-14.69,67.17-42.15,88.48a142.594,142.594,0,0,1,5,17.26c35.69-24.68,52.66-62.04,54.01-105.74a75.713,75.713,0,0,1,24.01-53.29,142.313,142.313,0,0,1-8.67-14.85h0ZM807.3-160.46a92.579,92.579,0,0,0,2.22-20.21h16.85c0,1.41.02,2.83.06,4.24a159.84,159.84,0,0,0-19.13,15.97h0Zm111.77-20.21v34.77a75.573,75.573,0,0,1-8.43-34.77Zm-25.28,0a92.385,92.385,0,0,0,25.28,63.62v22.74a109.357,109.357,0,0,1-42.14-86.35h16.85Z" fill="#e8a328" fill-rule="evenodd"/>
      <path id="Path_90" data-name="Path 90" d="M607.29-47.92c-.49,28.86-10.75,54.05-32.23,72.36A142.1,142.1,0,0,0,566.4,9.6c16.49-15.16,23.67-34.79,24.03-57.41A126.363,126.363,0,0,1,644.4-149.44a143.891,143.891,0,0,0,5,17.26,109.288,109.288,0,0,0-42.11,84.26h0ZM514.57,89H523a75.418,75.418,0,0,0-8.43-34.77V89Zm25.29,0a92.385,92.385,0,0,0-25.28-63.62V2.65A109.357,109.357,0,0,1,556.72,89H539.87Zm33.7,0h16.85q0-6.48-.58-12.93a144.009,144.009,0,0,0,46.28-46.06h13.28a59.019,59.019,0,0,1,16.86,2.44A75.8,75.8,0,0,0,640.96,89h16.85a58.9,58.9,0,0,1,25.28-48.41,58.967,58.967,0,0,1,12.64,11.92A42.1,42.1,0,0,0,674.66,89h16.85a25.27,25.27,0,0,1,12.65-21.9A58.9,58.9,0,0,1,708.37,89h8.43V54.23a75.842,75.842,0,0,0-67.42-41.07H645.1a143.461,143.461,0,0,0,6.35-16.83,92.382,92.382,0,0,1,65.34,29.06V2.65A109.02,109.02,0,0,0,655.5-20.38a144.481,144.481,0,0,0,2.02-16.75,125.4,125.4,0,0,1,59.26,19.2V-37.42a142.572,142.572,0,0,0-58.42-16.55,58.5,58.5,0,0,1,16.85-33.71,144.121,144.121,0,0,0,41.57,33.46V-73.71a126.314,126.314,0,0,1-58.99-106.94H640.94q0,6.48.58,12.93a144.138,144.138,0,0,0-46.29,46.06H581.95a59.019,59.019,0,0,1-16.86-2.44,75.8,75.8,0,0,0,25.29-56.55H573.53a58.9,58.9,0,0,1-25.28,48.41,58.967,58.967,0,0,1-12.64-11.92,42.1,42.1,0,0,0,21.07-36.49H539.83a25.27,25.27,0,0,1-12.65,21.9,58.9,58.9,0,0,1-4.21-21.9h-8.43v34.77a75.842,75.842,0,0,0,67.42,41.07h4.28a143.461,143.461,0,0,0-6.35,16.83,92.382,92.382,0,0,1-65.34-29.06V-94.3a109.02,109.02,0,0,0,61.29,23.03,144.481,144.481,0,0,0-2.02,16.75,125.4,125.4,0,0,1-59.26-19.2v19.49a142.462,142.462,0,0,0,58.43,16.55,58.761,58.761,0,0,1-16.86,33.7,143.954,143.954,0,0,0-41.57-33.45v19.49A126.314,126.314,0,0,1,573.55,89h0Zm33.71,0c0-1.41-.02-2.83-.06-4.24a159.839,159.839,0,0,0,19.13-15.97A92.646,92.646,0,0,0,624.12,89H607.27Zm49.07-205.08a92.613,92.613,0,0,0-32.19,68.14C622.96-11.7,609.46,19.23,582,40.54a142.594,142.594,0,0,1,5,17.26c35.69-24.68,52.66-62.04,54.01-105.74a75.713,75.713,0,0,1,24.01-53.29,142.313,142.313,0,0,1-8.67-14.85h0Zm-51.29-44.38a92.579,92.579,0,0,0,2.22-20.21h16.85c0,1.41.02,2.83.06,4.24a159.84,159.84,0,0,0-19.13,15.97h0Zm111.77-20.21v34.77a75.573,75.573,0,0,1-8.43-34.77Zm-25.28,0a92.385,92.385,0,0,0,25.28,63.62v22.74a109.357,109.357,0,0,1-42.14-86.35h16.85Z" fill="#e8a328" fill-rule="evenodd"/>
      <path id="Path_91" data-name="Path 91" d="M405.04-47.92c-.49,28.86-10.75,54.05-32.23,72.36A142.092,142.092,0,0,0,364.15,9.6c16.49-15.16,23.67-34.79,24.03-57.41a126.363,126.363,0,0,1,53.97-101.63,143.9,143.9,0,0,0,5,17.26,109.288,109.288,0,0,0-42.11,84.26h0ZM312.32,89h8.43a75.418,75.418,0,0,0-8.43-34.77V89Zm25.29,0a92.386,92.386,0,0,0-25.28-63.62V2.65A109.357,109.357,0,0,1,354.47,89H337.62Zm33.7,0h16.85q0-6.48-.58-12.93a144.008,144.008,0,0,0,46.28-46.06h13.28A59.019,59.019,0,0,1,464,32.45,75.8,75.8,0,0,0,438.71,89h16.85a58.9,58.9,0,0,1,25.28-48.41,58.968,58.968,0,0,1,12.64,11.92A42.1,42.1,0,0,0,472.41,89h16.85a25.27,25.27,0,0,1,12.65-21.9A58.9,58.9,0,0,1,506.12,89h8.43V54.23a75.842,75.842,0,0,0-67.42-41.07h-4.28A143.466,143.466,0,0,0,449.2-3.67a92.382,92.382,0,0,1,65.34,29.06V2.65a109.02,109.02,0,0,0-61.29-23.03,144.468,144.468,0,0,0,2.02-16.75,125.4,125.4,0,0,1,59.26,19.2V-37.42a142.572,142.572,0,0,0-58.42-16.55,58.5,58.5,0,0,1,16.85-33.71,144.121,144.121,0,0,0,41.57,33.46V-73.71a126.314,126.314,0,0,1-58.99-106.94H438.69q0,6.48.58,12.93a144.138,144.138,0,0,0-46.29,46.06H379.7a59.019,59.019,0,0,1-16.86-2.44,75.8,75.8,0,0,0,25.29-56.55H371.28A58.9,58.9,0,0,1,346-132.24a58.968,58.968,0,0,1-12.64-11.92,42.1,42.1,0,0,0,21.07-36.49H337.58a25.27,25.27,0,0,1-12.65,21.9,58.9,58.9,0,0,1-4.21-21.9h-8.43v34.77a75.842,75.842,0,0,0,67.42,41.07h4.28a143.466,143.466,0,0,0-6.35,16.83,92.382,92.382,0,0,1-65.34-29.06V-94.3a109.02,109.02,0,0,0,61.29,23.03,144.468,144.468,0,0,0-2.02,16.75,125.4,125.4,0,0,1-59.26-19.2v19.49a142.463,142.463,0,0,0,58.43,16.55,58.76,58.76,0,0,1-16.86,33.7,143.954,143.954,0,0,0-41.57-33.45v19.49A126.314,126.314,0,0,1,371.3,89h0Zm33.71,0c0-1.41-.02-2.83-.06-4.24a159.837,159.837,0,0,0,19.13-15.97A92.644,92.644,0,0,0,421.87,89Zm49.07-205.08A92.613,92.613,0,0,0,421.9-47.94c-1.19,36.24-14.69,67.17-42.15,88.48a142.6,142.6,0,0,1,5,17.26c35.69-24.68,52.66-62.04,54.01-105.74a75.712,75.712,0,0,1,24.01-53.29,142.324,142.324,0,0,1-8.67-14.85h0ZM402.8-160.46a92.577,92.577,0,0,0,2.22-20.21h16.85c0,1.41.02,2.83.06,4.24a159.837,159.837,0,0,0-19.13,15.97Zm111.77-20.21v34.77a75.573,75.573,0,0,1-8.43-34.77Zm-25.28,0a92.385,92.385,0,0,0,25.28,63.62v22.74a109.357,109.357,0,0,1-42.14-86.35h16.85Z" fill="#e8a328" fill-rule="evenodd"/>
      <path id="Path_92" data-name="Path 92" d="M202.79-47.92c-.49,28.86-10.75,54.05-32.23,72.36A142.1,142.1,0,0,0,161.9,9.6c16.49-15.16,23.67-34.79,24.03-57.41A126.363,126.363,0,0,1,239.9-149.44a143.894,143.894,0,0,0,5,17.26,109.288,109.288,0,0,0-42.11,84.26h0ZM110.07,89h8.43a75.418,75.418,0,0,0-8.43-34.77V89Zm25.29,0a92.386,92.386,0,0,0-25.28-63.62V2.65A109.357,109.357,0,0,1,152.22,89H135.37Zm33.7,0h16.85q0-6.48-.58-12.93a144.008,144.008,0,0,0,46.28-46.06h13.28a59.019,59.019,0,0,1,16.86,2.44A75.8,75.8,0,0,0,236.46,89h16.85a58.9,58.9,0,0,1,25.28-48.41,58.968,58.968,0,0,1,12.64,11.92A42.1,42.1,0,0,0,270.16,89h16.85a25.27,25.27,0,0,1,12.65-21.9A58.9,58.9,0,0,1,303.87,89h8.43V54.23a75.842,75.842,0,0,0-67.42-41.07H240.6a143.466,143.466,0,0,0,6.35-16.83,92.382,92.382,0,0,1,65.34,29.06V2.65A109.02,109.02,0,0,0,251-20.38a144.475,144.475,0,0,0,2.02-16.75,125.4,125.4,0,0,1,59.26,19.2V-37.42a142.572,142.572,0,0,0-58.42-16.55,58.5,58.5,0,0,1,16.85-33.71,144.121,144.121,0,0,0,41.57,33.46V-73.71a126.314,126.314,0,0,1-58.99-106.94H236.44q0,6.48.58,12.93a144.138,144.138,0,0,0-46.29,46.06H177.45a59.019,59.019,0,0,1-16.86-2.44,75.8,75.8,0,0,0,25.29-56.55H169.03a58.9,58.9,0,0,1-25.28,48.41,58.967,58.967,0,0,1-12.64-11.92,42.1,42.1,0,0,0,21.07-36.49H135.33a25.27,25.27,0,0,1-12.65,21.9,58.9,58.9,0,0,1-4.21-21.9h-8.43v34.77a75.842,75.842,0,0,0,67.42,41.07h4.28a143.466,143.466,0,0,0-6.35,16.83,92.382,92.382,0,0,1-65.34-29.06V-94.3a109.02,109.02,0,0,0,61.29,23.03,144.475,144.475,0,0,0-2.02,16.75,125.4,125.4,0,0,1-59.26-19.2v19.49a142.463,142.463,0,0,0,58.43,16.55,58.76,58.76,0,0,1-16.86,33.7,143.954,143.954,0,0,0-41.57-33.45v19.49A126.314,126.314,0,0,1,169.05,89h0Zm33.71,0c0-1.41-.02-2.83-.06-4.24a159.838,159.838,0,0,0,19.13-15.97A92.644,92.644,0,0,0,219.62,89Zm49.07-205.08a92.613,92.613,0,0,0-32.19,68.14c-1.19,36.24-14.69,67.17-42.15,88.48a142.6,142.6,0,0,1,5,17.26c35.69-24.68,52.66-62.04,54.01-105.74a75.713,75.713,0,0,1,24.01-53.29,142.321,142.321,0,0,1-8.67-14.85h0Zm-51.29-44.38a92.577,92.577,0,0,0,2.22-20.21h16.85c0,1.41.02,2.83.06,4.24a159.838,159.838,0,0,0-19.13,15.97Zm111.77-20.21v34.77a75.573,75.573,0,0,1-8.43-34.77Zm-25.28,0a92.385,92.385,0,0,0,25.28,63.62v22.74a109.357,109.357,0,0,1-42.14-86.35h16.85Z" fill="#e8a328" fill-rule="evenodd"/>
      <path id="Path_93" data-name="Path 93" d="M.54-47.92A107.27,107.27,0,0,1-5.5-13.33V21.22C9.11,2.11,16.53-21.5,17.4-47.94a92.7,92.7,0,0,1,32.19-68.14,142.322,142.322,0,0,0,8.67,14.85A75.694,75.694,0,0,0,34.25-47.94C33.1-10.53,20.5,22.23-5.5,46.37V68.22A144.1,144.1,0,0,0,29.37,30.01H42.65a59.019,59.019,0,0,1,16.86,2.44A75.8,75.8,0,0,0,34.22,89H51.07A58.9,58.9,0,0,1,76.35,40.59,58.967,58.967,0,0,1,88.99,52.51,42.1,42.1,0,0,0,67.92,89H84.77A25.27,25.27,0,0,1,97.42,67.1,58.9,58.9,0,0,1,101.63,89h8.43V54.23a75.781,75.781,0,0,0-67.4-41.07H38.38A143.464,143.464,0,0,0,44.73-3.67a92.382,92.382,0,0,1,65.34,29.06V2.65A109.02,109.02,0,0,0,48.78-20.38,144.474,144.474,0,0,0,50.8-37.13a125.4,125.4,0,0,1,59.26,19.2V-37.42A142.572,142.572,0,0,0,51.64-53.97,58.5,58.5,0,0,1,68.49-87.68a144.121,144.121,0,0,0,41.57,33.46V-73.71A126.314,126.314,0,0,1,51.07-180.65H34.22q0,6.48.58,12.93A143.967,143.967,0,0,0-5.51-130.47v33.45a126.3,126.3,0,0,1,43.15-52.4,143.9,143.9,0,0,0,5,17.26A109.255,109.255,0,0,0,.54-47.92ZM.52,89c0-1.41-.02-2.83-.06-4.24A159.837,159.837,0,0,0,19.59,68.79,92.645,92.645,0,0,0,17.37,89ZM-1.7-160.46A92.577,92.577,0,0,0,.52-180.67H17.37c0,1.41.02,2.83.06,4.24A159.838,159.838,0,0,0-1.7-160.46h0Zm111.77-20.21v34.77a75.573,75.573,0,0,1-8.43-34.77Zm-25.28,0a92.386,92.386,0,0,0,25.28,63.62v22.74a109.357,109.357,0,0,1-42.14-86.35H84.78Z" fill="#e8a328" fill-rule="evenodd"/>
    </g>
    <g id="Group_46" data-name="Group 46">
      <path id="Path_94" data-name="Path 94" d="M1499.14-47.92c-.49,28.86-10.75,54.05-32.23,72.36a142.076,142.076,0,0,0-8.66-14.84c16.49-15.16,23.67-34.79,24.03-57.41a126.363,126.363,0,0,1,53.97-101.63,143.9,143.9,0,0,0,5,17.26,109.288,109.288,0,0,0-42.11,84.26h0ZM1406.43,89h8.43a75.418,75.418,0,0,0-8.43-34.77V89Zm25.28,0a92.385,92.385,0,0,0-25.28-63.62V2.65A109.357,109.357,0,0,1,1448.57,89h-16.85Zm33.71,0h16.85q0-6.48-.58-12.93a144.009,144.009,0,0,0,46.28-46.06h13.28a59.019,59.019,0,0,1,16.86,2.44A75.8,75.8,0,0,0,1532.82,89h16.85a58.9,58.9,0,0,1,25.28-48.41,58.97,58.97,0,0,1,12.64,11.92A42.1,42.1,0,0,0,1566.52,89h16.85a25.269,25.269,0,0,1,12.65-21.9,58.9,58.9,0,0,1,4.21,21.9h8.43V54.23a75.842,75.842,0,0,0-67.42-41.07h-4.28a143.472,143.472,0,0,0,6.35-16.83,92.382,92.382,0,0,1,65.34,29.06V2.65a109.02,109.02,0,0,0-61.29-23.03,144.468,144.468,0,0,0,2.02-16.75,125.405,125.405,0,0,1,59.26,19.2V-37.42a142.571,142.571,0,0,0-58.42-16.55,58.5,58.5,0,0,1,16.85-33.71,144.122,144.122,0,0,0,41.57,33.46V-73.71a126.314,126.314,0,0,1-58.99-106.94H1532.8q0,6.48.58,12.93a144.139,144.139,0,0,0-46.29,46.06h-13.28a59.019,59.019,0,0,1-16.86-2.44,75.8,75.8,0,0,0,25.29-56.55h-16.85a58.9,58.9,0,0,1-25.28,48.41,58.97,58.97,0,0,1-12.64-11.92,42.1,42.1,0,0,0,21.07-36.49h-16.85a25.269,25.269,0,0,1-12.65,21.9,58.9,58.9,0,0,1-4.21-21.9h-8.43v34.77a75.842,75.842,0,0,0,67.42,41.07h4.28a143.472,143.472,0,0,0-6.35,16.83,92.382,92.382,0,0,1-65.34-29.06V-94.3a109.02,109.02,0,0,0,61.29,23.03,144.468,144.468,0,0,0-2.02,16.75,125.405,125.405,0,0,1-59.26-19.2v19.49a142.462,142.462,0,0,0,58.43,16.55,58.76,58.76,0,0,1-16.86,33.7,143.955,143.955,0,0,0-41.57-33.45v19.49A126.314,126.314,0,0,1,1465.41,89h0Zm33.7,0c0-1.41-.02-2.83-.06-4.24a159.839,159.839,0,0,0,19.13-15.97A92.646,92.646,0,0,0,1515.97,89Zm49.07-205.08A92.613,92.613,0,0,0,1516-47.94c-1.19,36.24-14.69,67.17-42.15,88.48a142.6,142.6,0,0,1,5,17.26c35.69-24.68,52.66-62.04,54.01-105.74a75.712,75.712,0,0,1,24.01-53.29,142.346,142.346,0,0,1-8.67-14.85h0Zm-51.29-44.38a92.579,92.579,0,0,0,2.22-20.21h16.85c0,1.41.02,2.83.06,4.24a159.84,159.84,0,0,0-19.13,15.97Zm111.78-20.21v34.77a75.573,75.573,0,0,1-8.43-34.77Zm-25.29,0a92.385,92.385,0,0,0,25.28,63.62v22.74a109.357,109.357,0,0,1-42.14-86.35h16.85Z" fill="#e8a328" fill-rule="evenodd"/>
      <path id="Path_95" data-name="Path 95" d="M1701.39-47.92c-.49,28.86-10.75,54.05-32.23,72.36A142.076,142.076,0,0,0,1660.5,9.6c16.49-15.16,23.67-34.79,24.03-57.41a126.363,126.363,0,0,1,53.97-101.63,143.9,143.9,0,0,0,5,17.26,109.288,109.288,0,0,0-42.11,84.26h0ZM1608.68,89h8.43a75.418,75.418,0,0,0-8.43-34.77V89Zm25.28,0a92.385,92.385,0,0,0-25.28-63.62V2.65A109.357,109.357,0,0,1,1650.82,89h-16.85Zm33.71,0h16.85q0-6.48-.58-12.93a144.009,144.009,0,0,0,46.28-46.06h13.28a59.019,59.019,0,0,1,16.86,2.44A75.8,75.8,0,0,0,1735.07,89h16.85a58.9,58.9,0,0,1,25.28-48.41,58.97,58.97,0,0,1,12.64,11.92A42.1,42.1,0,0,0,1768.77,89h16.85a25.269,25.269,0,0,1,12.65-21.9,58.9,58.9,0,0,1,4.21,21.9h8.43V54.23a75.842,75.842,0,0,0-67.42-41.07h-4.28a143.472,143.472,0,0,0,6.35-16.83,92.382,92.382,0,0,1,65.34,29.06V2.65a109.02,109.02,0,0,0-61.29-23.03,144.468,144.468,0,0,0,2.02-16.75,125.405,125.405,0,0,1,59.26,19.2V-37.42a142.571,142.571,0,0,0-58.42-16.55,58.5,58.5,0,0,1,16.85-33.71,144.122,144.122,0,0,0,41.57,33.46V-73.71a126.314,126.314,0,0,1-58.99-106.94h-16.85q0,6.48.58,12.93a144.139,144.139,0,0,0-46.29,46.06h-13.28a59.019,59.019,0,0,1-16.86-2.44,75.8,75.8,0,0,0,25.29-56.55h-16.85a58.9,58.9,0,0,1-25.28,48.41,58.97,58.97,0,0,1-12.64-11.92,42.1,42.1,0,0,0,21.07-36.49h-16.85a25.269,25.269,0,0,1-12.65,21.9,58.9,58.9,0,0,1-4.21-21.9h-8.43v34.77a75.842,75.842,0,0,0,67.42,41.07h4.28A143.472,143.472,0,0,0,1674-87.98a92.382,92.382,0,0,1-65.34-29.06V-94.3a109.02,109.02,0,0,0,61.29,23.03,144.468,144.468,0,0,0-2.02,16.75,125.405,125.405,0,0,1-59.26-19.2v19.49a142.462,142.462,0,0,0,58.43,16.55,58.76,58.76,0,0,1-16.86,33.7,143.955,143.955,0,0,0-41.57-33.45v19.49A126.314,126.314,0,0,1,1667.66,89h0Zm33.7,0c0-1.41-.02-2.83-.06-4.24a159.839,159.839,0,0,0,19.13-15.97A92.646,92.646,0,0,0,1718.22,89Zm49.07-205.08a92.613,92.613,0,0,0-32.19,68.14c-1.19,36.24-14.69,67.17-42.15,88.48a142.6,142.6,0,0,1,5,17.26c35.69-24.68,52.66-62.04,54.01-105.74a75.712,75.712,0,0,1,24.01-53.29,142.346,142.346,0,0,1-8.67-14.85h0Zm-51.29-44.38a92.579,92.579,0,0,0,2.22-20.21h16.85c0,1.41.02,2.83.06,4.24a159.84,159.84,0,0,0-19.13,15.97Zm111.78-20.21v34.77a75.573,75.573,0,0,1-8.43-34.77Zm-25.29,0a92.385,92.385,0,0,0,25.28,63.62v22.74a109.357,109.357,0,0,1-42.14-86.35h16.85Z" fill="#e8a328" fill-rule="evenodd"/>
      <path id="Path_96" data-name="Path 96" d="M1903.64-47.92c-.49,28.86-10.75,54.05-32.23,72.36a142.076,142.076,0,0,0-8.66-14.84c16.49-15.16,23.67-34.79,24.03-57.41a126.414,126.414,0,0,1,39.71-90.03v-22.05a143.99,143.99,0,0,0-34.87,38.22h-13.28a59.019,59.019,0,0,1-16.86-2.44,75.8,75.8,0,0,0,25.29-56.55h-16.85a58.9,58.9,0,0,1-25.28,48.41A58.97,58.97,0,0,1,1832-144.17a42.1,42.1,0,0,0,21.07-36.49h-16.85a25.269,25.269,0,0,1-12.65,21.9,58.9,58.9,0,0,1-4.21-21.9h-8.43v34.77a75.842,75.842,0,0,0,67.42,41.07h4.28a143.472,143.472,0,0,0-6.35,16.83,92.382,92.382,0,0,1-65.34-29.06v22.74a109.02,109.02,0,0,0,61.29,23.03,144.468,144.468,0,0,0-2.02,16.75,125.405,125.405,0,0,1-59.26-19.2v19.49a142.462,142.462,0,0,0,58.43,16.55,58.76,58.76,0,0,1-16.86,33.7,143.955,143.955,0,0,0-41.57-33.45v19.49a126.314,126.314,0,0,1,58.99,106.94h16.85q0-6.48-.58-12.93a143.968,143.968,0,0,0,40.31-37.25V4.91a119.71,119.71,0,0,1-43.14,52.89,142.082,142.082,0,0,0-5-17.26c27.46-21.3,40.96-52.23,42.15-88.48a94.135,94.135,0,0,1,6-30.73v-34.19a109.322,109.322,0,0,0-22.85,64.94h0ZM1810.93,89V54.23A75.573,75.573,0,0,1,1819.36,89Zm25.28,0a92.385,92.385,0,0,0-25.28-63.62V2.65A109.357,109.357,0,0,1,1853.07,89h-16.85Zm67.41,0c0-1.41-.02-2.83-.06-4.24a159.839,159.839,0,0,0,19.13-15.97A92.646,92.646,0,0,0,1920.47,89Zm-2.22-249.46a92.579,92.579,0,0,0,2.22-20.21h16.85c0,1.41.02,2.83.06,4.24A159.84,159.84,0,0,0,1901.4-160.46Z" fill="#e8a328" fill-rule="evenodd"/>
      <path id="Path_97" data-name="Path 97" d="M1296.89-47.92c-.49,28.86-10.75,54.05-32.23,72.36A142.076,142.076,0,0,0,1256,9.6c16.49-15.16,23.67-34.79,24.03-57.41A126.363,126.363,0,0,1,1334-149.44a143.9,143.9,0,0,0,5,17.26,109.288,109.288,0,0,0-42.11,84.26h0ZM1204.18,89h8.43a75.418,75.418,0,0,0-8.43-34.77V89Zm25.28,0a92.385,92.385,0,0,0-25.28-63.62V2.65A109.357,109.357,0,0,1,1246.32,89h-16.85Zm33.7,0h16.85q0-6.48-.58-12.93a144.009,144.009,0,0,0,46.28-46.06h13.28a59.019,59.019,0,0,1,16.86,2.44A75.8,75.8,0,0,0,1330.56,89h16.85a58.9,58.9,0,0,1,25.28-48.41,58.97,58.97,0,0,1,12.64,11.92A42.1,42.1,0,0,0,1364.26,89h16.85a25.269,25.269,0,0,1,12.65-21.9,58.9,58.9,0,0,1,4.21,21.9h8.43V54.23a75.842,75.842,0,0,0-67.42-41.07h-4.28a143.472,143.472,0,0,0,6.35-16.83,92.382,92.382,0,0,1,65.34,29.06V2.65a109.02,109.02,0,0,0-61.29-23.03,144.468,144.468,0,0,0,2.02-16.75,125.405,125.405,0,0,1,59.26,19.2V-37.42a142.571,142.571,0,0,0-58.42-16.55,58.5,58.5,0,0,1,16.85-33.71,144.122,144.122,0,0,0,41.57,33.46V-73.71a126.314,126.314,0,0,1-58.99-106.94h-16.85q0,6.48.58,12.93a144.139,144.139,0,0,0-46.29,46.06h-13.28a59.019,59.019,0,0,1-16.86-2.44,75.8,75.8,0,0,0,25.29-56.55h-16.85a58.9,58.9,0,0,1-25.28,48.41,58.97,58.97,0,0,1-12.64-11.92,42.1,42.1,0,0,0,21.07-36.49h-16.85a25.269,25.269,0,0,1-12.65,21.9,58.9,58.9,0,0,1-4.21-21.9h-8.43v34.77a75.842,75.842,0,0,0,67.42,41.07h4.28a143.472,143.472,0,0,0-6.35,16.83,92.382,92.382,0,0,1-65.34-29.06V-94.3a109.02,109.02,0,0,0,61.29,23.03,144.468,144.468,0,0,0-2.02,16.75,125.405,125.405,0,0,1-59.26-19.2v19.49a142.462,142.462,0,0,0,58.43,16.55,58.76,58.76,0,0,1-16.86,33.7,143.955,143.955,0,0,0-41.57-33.45v19.49A126.314,126.314,0,0,1,1263.15,89h0Zm33.71,0c0-1.41-.02-2.83-.06-4.24a159.839,159.839,0,0,0,19.13-15.97A92.646,92.646,0,0,0,1313.72,89Zm49.07-205.08a92.613,92.613,0,0,0-32.19,68.14c-1.19,36.24-14.69,67.17-42.15,88.48a142.6,142.6,0,0,1,5,17.26c35.69-24.68,52.66-62.04,54.01-105.74a75.712,75.712,0,0,1,24.01-53.29,142.346,142.346,0,0,1-8.67-14.85h0Zm-51.29-44.38a92.579,92.579,0,0,0,2.22-20.21h16.85c0,1.41.02,2.83.06,4.24a159.84,159.84,0,0,0-19.13,15.97Zm111.78-20.21v34.77a75.573,75.573,0,0,1-8.43-34.77Zm-25.29,0a92.385,92.385,0,0,0,25.28,63.62v22.74a109.357,109.357,0,0,1-42.14-86.35h16.85Z" fill="#e8a328" fill-rule="evenodd"/>
      <path id="Path_98" data-name="Path 98" d="M1094.64-47.92c-.49,28.86-10.75,54.05-32.23,72.36a142.076,142.076,0,0,0-8.66-14.84c16.49-15.16,23.67-34.79,24.03-57.41a126.363,126.363,0,0,1,53.97-101.63,143.9,143.9,0,0,0,5,17.26,109.288,109.288,0,0,0-42.11,84.26h0ZM1001.93,89h8.43a75.418,75.418,0,0,0-8.43-34.77V89Zm25.28,0a92.385,92.385,0,0,0-25.28-63.62V2.65A109.357,109.357,0,0,1,1044.07,89h-16.85Zm33.7,0h16.85q0-6.48-.58-12.93a144.009,144.009,0,0,0,46.28-46.06h13.28a59.019,59.019,0,0,1,16.86,2.44A75.8,75.8,0,0,0,1128.31,89h16.85a58.9,58.9,0,0,1,25.28-48.41,58.97,58.97,0,0,1,12.64,11.92A42.1,42.1,0,0,0,1162.01,89h16.85a25.269,25.269,0,0,1,12.65-21.9,58.9,58.9,0,0,1,4.21,21.9h8.43V54.23a75.842,75.842,0,0,0-67.42-41.07h-4.28a143.472,143.472,0,0,0,6.35-16.83,92.382,92.382,0,0,1,65.34,29.06V2.65a109.02,109.02,0,0,0-61.29-23.03,144.468,144.468,0,0,0,2.02-16.75,125.405,125.405,0,0,1,59.26,19.2V-37.42a142.571,142.571,0,0,0-58.42-16.55,58.5,58.5,0,0,1,16.85-33.71,144.122,144.122,0,0,0,41.57,33.46V-73.71a126.314,126.314,0,0,1-58.99-106.94h-16.85q0,6.48.58,12.93a144.139,144.139,0,0,0-46.29,46.06H1069.3a59.019,59.019,0,0,1-16.86-2.44,75.8,75.8,0,0,0,25.29-56.55h-16.85a58.9,58.9,0,0,1-25.28,48.41,58.97,58.97,0,0,1-12.64-11.92,42.1,42.1,0,0,0,21.07-36.49h-16.85a25.27,25.27,0,0,1-12.65,21.9,58.9,58.9,0,0,1-4.21-21.9h-8.43v34.77a75.842,75.842,0,0,0,67.42,41.07h4.28a143.472,143.472,0,0,0-6.35,16.83,92.382,92.382,0,0,1-65.34-29.06V-94.3a109.02,109.02,0,0,0,61.29,23.03,144.468,144.468,0,0,0-2.02,16.75,125.405,125.405,0,0,1-59.26-19.2v19.49a142.462,142.462,0,0,0,58.43,16.55,58.76,58.76,0,0,1-16.86,33.7,143.954,143.954,0,0,0-41.57-33.45v19.49A126.314,126.314,0,0,1,1060.9,89h0Zm33.71,0c0-1.41-.02-2.83-.06-4.24a159.839,159.839,0,0,0,19.13-15.97A92.646,92.646,0,0,0,1111.47,89Zm49.07-205.08a92.613,92.613,0,0,0-32.19,68.14c-1.19,36.24-14.69,67.17-42.15,88.48a142.6,142.6,0,0,1,5,17.26c35.69-24.68,52.66-62.04,54.01-105.74a75.712,75.712,0,0,1,24.01-53.29,142.346,142.346,0,0,1-8.67-14.85h0Zm-51.29-44.38a92.579,92.579,0,0,0,2.22-20.21h16.85c0,1.41.02,2.83.06,4.24a159.84,159.84,0,0,0-19.13,15.97Zm111.78-20.21v34.77a75.573,75.573,0,0,1-8.43-34.77Zm-25.29,0a92.385,92.385,0,0,0,25.28,63.62v22.74a109.357,109.357,0,0,1-42.14-86.35h16.85Z" fill="#e8a328" fill-rule="evenodd"/>
      <path id="Path_99" data-name="Path 99" d="M892.39-47.92c-.49,28.86-10.75,54.05-32.23,72.36A142.1,142.1,0,0,0,851.5,9.6c16.49-15.16,23.67-34.79,24.03-57.41A126.363,126.363,0,0,1,929.5-149.44a143.891,143.891,0,0,0,5,17.26,109.288,109.288,0,0,0-42.11,84.26h0ZM799.68,89h8.43a75.418,75.418,0,0,0-8.43-34.77V89Zm25.28,0a92.385,92.385,0,0,0-25.28-63.62V2.65A109.357,109.357,0,0,1,841.82,89H824.97Zm33.7,0h16.85q0-6.48-.58-12.93a144.009,144.009,0,0,0,46.28-46.06h13.28a59.019,59.019,0,0,1,16.86,2.44A75.8,75.8,0,0,0,926.06,89h16.85a58.9,58.9,0,0,1,25.28-48.41,58.967,58.967,0,0,1,12.64,11.92A42.1,42.1,0,0,0,959.76,89h16.85a25.27,25.27,0,0,1,12.65-21.9A58.9,58.9,0,0,1,993.47,89h8.43V54.23a75.842,75.842,0,0,0-67.42-41.07H930.2a143.461,143.461,0,0,0,6.35-16.83,92.382,92.382,0,0,1,65.34,29.06V2.65A109.02,109.02,0,0,0,940.6-20.38a144.481,144.481,0,0,0,2.02-16.75,125.4,125.4,0,0,1,59.26,19.2V-37.42a142.572,142.572,0,0,0-58.42-16.55,58.5,58.5,0,0,1,16.85-33.71,144.121,144.121,0,0,0,41.57,33.46V-73.71a126.314,126.314,0,0,1-58.99-106.94H926.04q0,6.48.58,12.93a144.138,144.138,0,0,0-46.29,46.06H867.05a59.019,59.019,0,0,1-16.86-2.44,75.8,75.8,0,0,0,25.29-56.55H858.63a58.9,58.9,0,0,1-25.28,48.41,58.967,58.967,0,0,1-12.64-11.92,42.1,42.1,0,0,0,21.07-36.49H824.93a25.27,25.27,0,0,1-12.65,21.9,58.9,58.9,0,0,1-4.21-21.9h-8.43v34.77a75.842,75.842,0,0,0,67.42,41.07h4.28a143.461,143.461,0,0,0-6.35,16.83,92.382,92.382,0,0,1-65.34-29.06V-94.3a109.02,109.02,0,0,0,61.29,23.03,144.481,144.481,0,0,0-2.02,16.75,125.4,125.4,0,0,1-59.26-19.2v19.49a142.462,142.462,0,0,0,58.43,16.55,58.761,58.761,0,0,1-16.86,33.7,143.954,143.954,0,0,0-41.57-33.45v19.49A126.314,126.314,0,0,1,858.65,89h0Zm33.71,0c0-1.41-.02-2.83-.06-4.24a159.839,159.839,0,0,0,19.13-15.97A92.646,92.646,0,0,0,909.22,89H892.37Zm49.07-205.08a92.613,92.613,0,0,0-32.19,68.14c-1.19,36.24-14.69,67.17-42.15,88.48a142.594,142.594,0,0,1,5,17.26c35.69-24.68,52.66-62.04,54.01-105.74a75.713,75.713,0,0,1,24.01-53.29,142.313,142.313,0,0,1-8.67-14.85h0Zm-51.29-44.38a92.579,92.579,0,0,0,2.22-20.21h16.85c0,1.41.02,2.83.06,4.24a159.84,159.84,0,0,0-19.13,15.97h0Zm111.78-20.21v34.77a75.573,75.573,0,0,1-8.43-34.77Zm-25.29,0a92.385,92.385,0,0,0,25.28,63.62v22.74a109.357,109.357,0,0,1-42.14-86.35h16.85Z" fill="#e8a328" fill-rule="evenodd"/>
      <path id="Path_100" data-name="Path 100" d="M690.14-47.92c-.49,28.86-10.75,54.05-32.23,72.36A142.1,142.1,0,0,0,649.25,9.6c16.49-15.16,23.67-34.79,24.03-57.41a126.363,126.363,0,0,1,53.97-101.63,143.891,143.891,0,0,0,5,17.26,109.288,109.288,0,0,0-42.11,84.26h0ZM597.43,89h8.43a75.418,75.418,0,0,0-8.43-34.77V89Zm25.28,0a92.385,92.385,0,0,0-25.28-63.62V2.65A109.357,109.357,0,0,1,639.57,89H622.72Zm33.7,0h16.85q0-6.48-.58-12.93a144.009,144.009,0,0,0,46.28-46.06h13.28a59.019,59.019,0,0,1,16.86,2.44A75.8,75.8,0,0,0,723.81,89h16.85a58.9,58.9,0,0,1,25.28-48.41,58.967,58.967,0,0,1,12.64,11.92A42.1,42.1,0,0,0,757.51,89h16.85a25.27,25.27,0,0,1,12.65-21.9A58.9,58.9,0,0,1,791.22,89h8.43V54.23a75.842,75.842,0,0,0-67.42-41.07h-4.28A143.461,143.461,0,0,0,734.3-3.67a92.382,92.382,0,0,1,65.34,29.06V2.65a109.02,109.02,0,0,0-61.29-23.03,144.481,144.481,0,0,0,2.02-16.75,125.4,125.4,0,0,1,59.26,19.2V-37.42a142.572,142.572,0,0,0-58.42-16.55,58.5,58.5,0,0,1,16.85-33.71,144.121,144.121,0,0,0,41.57,33.46V-73.71a126.314,126.314,0,0,1-58.99-106.94H723.79q0,6.48.58,12.93a144.138,144.138,0,0,0-46.29,46.06H664.8a59.019,59.019,0,0,1-16.86-2.44,75.8,75.8,0,0,0,25.29-56.55H656.38a58.9,58.9,0,0,1-25.28,48.41,58.967,58.967,0,0,1-12.64-11.92,42.1,42.1,0,0,0,21.07-36.49H622.68a25.27,25.27,0,0,1-12.65,21.9,58.9,58.9,0,0,1-4.21-21.9h-8.43v34.77a75.842,75.842,0,0,0,67.42,41.07h4.28a143.461,143.461,0,0,0-6.35,16.83,92.382,92.382,0,0,1-65.34-29.06V-94.3a109.02,109.02,0,0,0,61.29,23.03,144.481,144.481,0,0,0-2.02,16.75,125.4,125.4,0,0,1-59.26-19.2v19.49a142.462,142.462,0,0,0,58.43,16.55,58.761,58.761,0,0,1-16.86,33.7,143.954,143.954,0,0,0-41.57-33.45v19.49A126.314,126.314,0,0,1,656.4,89h0Zm33.71,0c0-1.41-.02-2.83-.06-4.24a159.839,159.839,0,0,0,19.13-15.97A92.646,92.646,0,0,0,706.97,89H690.12Zm49.07-205.08A92.613,92.613,0,0,0,707-47.94c-1.19,36.24-14.69,67.17-42.15,88.48a142.594,142.594,0,0,1,5,17.26c35.69-24.68,52.66-62.04,54.01-105.74a75.713,75.713,0,0,1,24.01-53.29,142.313,142.313,0,0,1-8.67-14.85h0ZM687.9-160.46a92.579,92.579,0,0,0,2.22-20.21h16.85c0,1.41.02,2.83.06,4.24a159.84,159.84,0,0,0-19.13,15.97h0Zm111.78-20.21v34.77a75.573,75.573,0,0,1-8.43-34.77Zm-25.29,0a92.385,92.385,0,0,0,25.28,63.62v22.74a109.357,109.357,0,0,1-42.14-86.35h16.85Z" fill="#e8a328" fill-rule="evenodd"/>
      <path id="Path_101" data-name="Path 101" d="M487.89-47.92a107.27,107.27,0,0,1-6.04,34.59V21.22c14.61-19.11,22.03-42.72,22.9-69.16a92.7,92.7,0,0,1,32.19-68.14,142.324,142.324,0,0,0,8.67,14.85A75.694,75.694,0,0,0,521.6-47.94c-1.16,37.41-13.76,70.17-39.76,94.31V68.22a144.1,144.1,0,0,0,34.87-38.21h13.28a59.019,59.019,0,0,1,16.86,2.44A75.8,75.8,0,0,0,521.56,89h16.85a58.9,58.9,0,0,1,25.28-48.41,58.967,58.967,0,0,1,12.64,11.92A42.1,42.1,0,0,0,555.26,89h16.85a25.27,25.27,0,0,1,12.65-21.9A58.9,58.9,0,0,1,588.97,89h8.43V54.23a75.842,75.842,0,0,0-67.42-41.07H525.7a143.461,143.461,0,0,0,6.35-16.83,92.382,92.382,0,0,1,65.34,29.06V2.65A109.02,109.02,0,0,0,536.1-20.38a144.481,144.481,0,0,0,2.02-16.75,125.4,125.4,0,0,1,59.26,19.2V-37.42a142.572,142.572,0,0,0-58.42-16.55,58.5,58.5,0,0,1,16.85-33.71,144.121,144.121,0,0,0,41.57,33.46V-73.71a126.314,126.314,0,0,1-58.99-106.94H521.54q0,6.48.58,12.93a143.967,143.967,0,0,0-40.31,37.25v33.45a126.3,126.3,0,0,1,43.15-52.4,143.891,143.891,0,0,0,5,17.26A109.288,109.288,0,0,0,487.85-47.9h0ZM487.87,89c0-1.41-.02-2.83-.06-4.24a159.837,159.837,0,0,0,19.13-15.97A92.644,92.644,0,0,0,504.72,89Zm-2.22-249.46a92.577,92.577,0,0,0,2.22-20.21h16.85c0,1.41.02,2.83.06,4.24a159.837,159.837,0,0,0-19.13,15.97Zm111.78-20.21v34.77A75.573,75.573,0,0,1,589-180.67Zm-25.29,0a92.385,92.385,0,0,0,25.28,63.62v22.74a109.357,109.357,0,0,1-42.14-86.35h16.85Z" fill="#e8a328" fill-rule="evenodd"/>
    </g>
    <rect id="Rectangle_11" data-name="Rectangle 11" width="1920" height="89" fill="url(#linear-gradient)"/>
  </g>
</svg>
